Coordinates
version=1
nRows=38
nColumns=12
inDegrees=yes

Units are S.I. units (second, meters, Newtons, ...)
Angles are in degrees

endheader
time	SC_y	SC_z	SC_x	AC_y	AC_z	AC_x	GH_y	GH_z	GH_yy	EL_x	PS_y
       0.0              -12.28         -4.772          53.34          44.23         -9.183         -3.357         -26.63          25.72          24.14          90.94          87.78
   0.04091              -12.29         -4.766          53.34          44.24          -9.18         -3.358         -26.65          25.72          24.15          90.93          87.79
   0.08183              -12.29          -4.76          53.34          44.24         -9.178         -3.359         -26.67          25.73          24.16          90.93           87.8
    0.1227               -12.3         -4.754          53.35          44.24         -9.176          -3.36          -26.7          25.73          24.18          90.92           87.8
    0.1637               -12.3         -4.747          53.35          44.24         -9.173         -3.361         -26.72          25.74          24.19          90.91          87.81
    0.2046              -12.31          -4.74          53.35          44.24         -9.171         -3.362         -26.75          25.74          24.21          90.91          87.82
    0.2455              -12.32         -4.732          53.36          44.25         -9.168         -3.363         -26.77          25.75          24.22           90.9          87.83
    0.2864              -12.33         -4.724          53.36          44.25         -9.164         -3.364          -26.8          25.76          24.24          90.89          87.85
    0.3273              -12.33         -4.715          53.37          44.25         -9.161         -3.365         -26.84          25.77          24.26          90.88          87.86
    0.3682              -12.34         -4.706          53.37          44.25         -9.158         -3.367         -26.87          25.77          24.28          90.87          87.87
    0.4091              -12.35         -4.696          53.38          44.26         -9.154         -3.368         -26.91          25.78           24.3          90.86          87.89
    0.4501              -12.36         -4.685          53.38          44.26          -9.15          -3.37         -26.95          25.79          24.33          90.85           87.9
     0.491              -12.37         -4.673          53.39          44.26         -9.145         -3.371         -26.99           25.8          24.35          90.84          87.92
    0.5319              -12.38         -4.661           53.4          44.27          -9.14         -3.373         -27.04          25.82          24.38          90.83          87.93
    0.5728              -12.39         -4.647           53.4          44.27         -9.135         -3.375         -27.09          25.83          24.41          90.81          87.95
    0.6137              -12.41         -4.632          53.41          44.28         -9.129         -3.377         -27.14          25.84          24.44           90.8          87.97
    0.6546              -12.42         -4.616          53.42          44.28         -9.123          -3.38          -27.2          25.85          24.47          90.78           88.0
    0.6955              -12.44         -4.598          53.43          44.29         -9.117         -3.382         -27.27          25.87          24.51          90.77          88.02
    0.7364              -12.45         -4.579          53.44          44.29         -9.109         -3.385         -27.34          25.89          24.55          90.75          88.05
    0.7774              -12.47         -4.558          53.45           44.3         -9.101         -3.388         -27.42          25.91           24.6          90.73          88.08
    0.8183              -12.49         -4.535          53.46          44.31         -9.093         -3.391          -27.5          25.93          24.65           90.7          88.11
    0.8592              -12.51         -4.509          53.48          44.31         -9.083         -3.395          -27.6          25.95           24.7          90.68          88.15
    0.9001              -12.54         -4.481          53.49          44.32         -9.072         -3.399          -27.7          25.97          24.77          90.65          88.18
     0.941              -12.57          -4.45          53.51          44.33          -9.06         -3.403         -27.81           26.0          24.83          90.62          88.23
    0.9819               -12.6         -4.415          53.53          44.34         -9.047         -3.408         -27.94          26.03          24.91          90.58          88.28
     1.023              -12.63         -4.377          53.55          44.35         -9.033         -3.413         -28.08          26.07          24.99          90.54          88.33
     1.064              -12.67         -4.334          53.57          44.37         -9.016          -3.42         -28.24          26.11          25.08           90.5          88.39
     1.105              -12.71         -4.285          53.59          44.38         -8.998         -3.426         -28.42          26.15          25.19          90.45          88.46
     1.146              -12.76          -4.23          53.62           44.4         -8.977         -3.434         -28.62           26.2          25.31           90.4          88.53
     1.186              -12.81         -4.167          53.66          44.42         -8.953         -3.443         -28.85          26.25          25.44          90.34          88.62
     1.227              -12.88         -4.096          53.69          44.44         -8.926         -3.453         -29.12          26.32           25.6          90.26          88.72
     1.268              -12.95         -4.014          53.74          44.47         -8.895         -3.465         -29.42          26.39          25.77          90.18          88.84
     1.309              -13.03          -3.92          53.79          44.49         -8.859         -3.478         -29.77          26.47          25.98          90.09          88.97
      1.35              -13.13          -3.81          53.84          44.53         -8.817         -3.494         -30.17          26.57          26.21          89.98          89.12
     1.391              -13.24         -3.682          53.91          44.57         -8.769         -3.512         -30.64          26.69          26.49          89.85           89.3
     1.432              -13.37          -3.53          53.99          44.61         -8.711         -3.533          -31.2          26.82          26.82           89.7          89.51
     1.473              -13.53          -3.35          54.09          44.67         -8.643         -3.559         -31.86          26.98          27.21          89.52          89.76
     1.514              -13.72         -3.135           54.2          44.73         -8.561         -3.589         -32.66          27.17          27.67           89.3          90.06
